<svg xmlns="http://www.w3.org/2000/svg" viewBox="0 0 500 700" width="500" height="700"><defs><radialGradient id="gran" cx="38%" cy="32%" r="75%"><stop offset="0" stop-color="#b9c0c7"/><stop offset=".55" stop-color="#7b838c"/><stop offset="1" stop-color="#4a5058"/></radialGradient><linearGradient id="granS" x1="0" y1="0" x2="0" y2="1"><stop offset="0" stop-color="#b9c0c7"/><stop offset=".45" stop-color="#7b838c"/><stop offset="1" stop-color="#2d3238"/></linearGradient><radialGradient id="capR" cx="40%" cy="35%" r="70%"><stop offset="0" stop-color="#ff5a6b"/><stop offset="1" stop-color="#8e1323"/></radialGradient><radialGradient id="capY" cx="40%" cy="35%" r="70%"><stop offset="0" stop-color="#ffe680"/><stop offset="1" stop-color="#a67f00"/></radialGradient><filter id="soft" x="-30%" y="-30%" width="160%" height="160%"><feGaussianBlur stdDeviation="3"/></filter><filter id="grain"><feTurbulence type="fractalNoise" baseFrequency="1.6" numOctaves="2" seed="4"/><feColorMatrix values="0 0 0 0 0  0 0 0 0 0  0 0 0 0 0  0 0 0 .18 0"/><feComposite in2="SourceGraphic" operator="in"/></filter></defs><rect width="500" height="700" fill="#eef7fc"/><rect width="500" height="700" fill="#fff" filter="url(#grain)"/><g opacity="1.0"><ellipse cx="250" cy="330" rx="230" ry="230.0" fill="#1f6fb2"/><ellipse cx="250" cy="330" rx="153.4" ry="153.4" fill="#eaf5fc"/><ellipse cx="250" cy="330" rx="76.6" ry="76.6" fill="#c8102e"/><ellipse cx="250" cy="330" rx="28.8" ry="28.8" fill="#eaf5fc"/></g><line x1="0" y1="330" x2="500" y2="330" stroke="#06121f" stroke-width="3" opacity=".7"/><line x1="250" y1="0" x2="250" y2="700" stroke="#06121f" stroke-width="3" opacity=".7"/><line x1="0" y1="96" x2="500" y2="96" stroke="#06121f" stroke-width="5"/><ellipse cx="259.1" cy="323.4" rx="34.7" ry="34.7" fill="#000" opacity=".28" filter="url(#soft)"/><circle cx="255.0" cy="318.0" r="34.0" fill="url(#gran)"/><circle cx="255.0" cy="318.0" r="31.3" fill="none" stroke="#000" stroke-opacity=".18" stroke-width="1.7"/><circle cx="255.0" cy="318.0" r="17.0" fill="url(#capR)"/><g transform="rotate(0 255.0 318.0)"><rect x="250.2" y="293.5" width="9.5" height="30.6" rx="4.1" fill="url(#capR)" stroke="#000" stroke-opacity=".25" stroke-width="1.0"/></g><circle cx="243.1" cy="304.4" r="6.1" fill="#fff" opacity=".22"/><ellipse cx="209.1" cy="377.4" rx="34.7" ry="34.7" fill="#000" opacity=".28" filter="url(#soft)"/><circle cx="205.0" cy="372.0" r="34.0" fill="url(#gran)"/><circle cx="205.0" cy="372.0" r="31.3" fill="none" stroke="#000" stroke-opacity=".18" stroke-width="1.7"/><circle cx="205.0" cy="372.0" r="17.0" fill="url(#capY)"/><g transform="rotate(30 205.0 372.0)"><rect x="200.2" y="347.5" width="9.5" height="30.6" rx="4.1" fill="url(#capY)" stroke="#000" stroke-opacity=".25" stroke-width="1.0"/></g><circle cx="193.1" cy="358.4" r="6.1" fill="#fff" opacity=".22"/><ellipse cx="304.1" cy="255.4" rx="34.7" ry="34.7" fill="#000" opacity=".28" filter="url(#soft)"/><circle cx="300.0" cy="250.0" r="34.0" fill="url(#gran)"/><circle cx="300.0" cy="250.0" r="31.3" fill="none" stroke="#000" stroke-opacity=".18" stroke-width="1.7"/><circle cx="300.0" cy="250.0" r="17.0" fill="url(#capY)"/><g transform="rotate(-20 300.0 250.0)"><rect x="295.2" y="225.5" width="9.5" height="30.6" rx="4.1" fill="url(#capY)" stroke="#000" stroke-opacity=".25" stroke-width="1.0"/></g><circle cx="288.1" cy="236.4" r="6.1" fill="#fff" opacity=".22"/><ellipse cx="154.1" cy="305.4" rx="34.7" ry="34.7" fill="#000" opacity=".28" filter="url(#soft)"/><circle cx="150.0" cy="300.0" r="34.0" fill="url(#gran)"/><circle cx="150.0" cy="300.0" r="31.3" fill="none" stroke="#000" stroke-opacity=".18" stroke-width="1.7"/><circle cx="150.0" cy="300.0" r="17.0" fill="url(#capR)"/><g transform="rotate(60 150.0 300.0)"><rect x="145.2" y="275.5" width="9.5" height="30.6" rx="4.1" fill="url(#capR)" stroke="#000" stroke-opacity=".25" stroke-width="1.0"/></g><circle cx="138.1" cy="286.4" r="6.1" fill="#fff" opacity=".22"/><ellipse cx="334.1" cy="405.4" rx="34.7" ry="34.7" fill="#000" opacity=".28" filter="url(#soft)"/><circle cx="330.0" cy="400.0" r="34.0" fill="url(#gran)"/><circle cx="330.0" cy="400.0" r="31.3" fill="none" stroke="#000" stroke-opacity=".18" stroke-width="1.7"/><circle cx="330.0" cy="400.0" r="17.0" fill="url(#capR)"/><g transform="rotate(-40 330.0 400.0)"><rect x="325.2" y="375.5" width="9.5" height="30.6" rx="4.1" fill="url(#capR)" stroke="#000" stroke-opacity=".25" stroke-width="1.0"/></g><circle cx="318.1" cy="386.4" r="6.1" fill="#fff" opacity=".22"/><ellipse cx="244.1" cy="565.4" rx="34.7" ry="34.7" fill="#000" opacity=".28" filter="url(#soft)"/><circle cx="240.0" cy="560.0" r="34.0" fill="url(#gran)"/><circle cx="240.0" cy="560.0" r="31.3" fill="none" stroke="#000" stroke-opacity=".18" stroke-width="1.7"/><circle cx="240.0" cy="560.0" r="17.0" fill="url(#capY)"/><g transform="rotate(10 240.0 560.0)"><rect x="235.2" y="535.5" width="9.5" height="30.6" rx="4.1" fill="url(#capY)" stroke="#000" stroke-opacity=".25" stroke-width="1.0"/></g><circle cx="228.1" cy="546.4" r="6.1" fill="#fff" opacity=".22"/><ellipse cx="284.1" cy="625.4" rx="34.7" ry="34.7" fill="#000" opacity=".28" filter="url(#soft)"/><circle cx="280.0" cy="620.0" r="34.0" fill="url(#gran)"/><circle cx="280.0" cy="620.0" r="31.3" fill="none" stroke="#000" stroke-opacity=".18" stroke-width="1.7"/><circle cx="280.0" cy="620.0" r="17.0" fill="url(#capR)"/><g transform="rotate(-15 280.0 620.0)"><rect x="275.2" y="595.5" width="9.5" height="30.6" rx="4.1" fill="url(#capR)" stroke="#000" stroke-opacity=".25" stroke-width="1.0"/></g><circle cx="268.1" cy="606.4" r="6.1" fill="#fff" opacity=".22"/></svg>