<svg xmlns="http://www.w3.org/2000/svg" viewBox="0 0 500 700" width="500" height="700"><defs><radialGradient id="gran" cx="38%" cy="32%" r="75%"><stop offset="0" stop-color="#b9c0c7"/><stop offset=".55" stop-color="#7b838c"/><stop offset="1" stop-color="#4a5058"/></radialGradient><linearGradient id="granS" x1="0" y1="0" x2="0" y2="1"><stop offset="0" stop-color="#b9c0c7"/><stop offset=".45" stop-color="#7b838c"/><stop offset="1" stop-color="#2d3238"/></linearGradient><radialGradient id="capR" cx="40%" cy="35%" r="70%"><stop offset="0" stop-color="#ff5a6b"/><stop offset="1" stop-color="#8e1323"/></radialGradient><radialGradient id="capY" cx="40%" cy="35%" r="70%"><stop offset="0" stop-color="#ffe680"/><stop offset="1" stop-color="#a67f00"/></radialGradient><filter id="soft" x="-30%" y="-30%" width="160%" height="160%"><feGaussianBlur stdDeviation="3"/></filter><filter id="grain"><feTurbulence type="fractalNoise" baseFrequency="1.6" numOctaves="2" seed="4"/><feColorMatrix values="0 0 0 0 0  0 0 0 0 0  0 0 0 0 0  0 0 0 .18 0"/><feComposite in2="SourceGraphic" operator="in"/></filter><linearGradient id="s1" x1="0" y1="0" x2="0" y2="1"><stop offset="0" stop-color="#081a2e"/><stop offset="0.55" stop-color="#1d4b77"/><stop offset="1" stop-color="#8cc0e2"/></linearGradient><linearGradient id="i1" x1="0" y1="0" x2="0" y2="1"><stop offset="0" stop-color="#cfe6f4"/><stop offset="1" stop-color="#f7fcff"/></linearGradient></defs><rect width="500" height="700" fill="url(#s1)"/><circle cx="60" cy="40" r="7" fill="#fff"/><path d="M52,40 L68,40 L140.0,420 L-20.0,420Z" fill="#fff" opacity="0.12" filter="url(#soft)"/><circle cx="170" cy="40" r="7" fill="#fff"/><path d="M162,40 L178,40 L250.0,420 L90.0,420Z" fill="#fff" opacity="0.12" filter="url(#soft)"/><circle cx="330" cy="40" r="7" fill="#fff"/><path d="M322,40 L338,40 L410.0,420 L250.0,420Z" fill="#fff" opacity="0.12" filter="url(#soft)"/><circle cx="440" cy="40" r="7" fill="#fff"/><path d="M432,40 L448,40 L520.0,420 L360.0,420Z" fill="#fff" opacity="0.12" filter="url(#soft)"/><path d="M0,420 L500,420 L500,700 L0,700Z" fill="url(#i1)"/><g opacity="0.9"><ellipse cx="250" cy="440" rx="130" ry="18.200000000000003" fill="#1f6fb2"/><ellipse cx="250" cy="440" rx="86.7" ry="12.1" fill="#eaf5fc"/><ellipse cx="250" cy="440" rx="43.3" ry="6.1" fill="#c8102e"/><ellipse cx="250" cy="440" rx="16.2" ry="2.3" fill="#eaf5fc"/></g><line x1="250" y1="420" x2="250" y2="700" stroke="#06121f" stroke-opacity=".25" stroke-dasharray="4 8"/><g opacity=".25" transform="translate(0,1240) scale(1,-1)"><g transform="translate(220,620) scale(1.6,1.6)"><path d="M-5.0,-40.0 L-85.0,-4.0" fill="none" stroke="#06121f" stroke-width="11" stroke-linecap="round" stroke-linejoin="round"/><path d="M-5.0,-40.0 L28.0,-36.0 L22.0,-3.0" fill="none" stroke="#06121f" stroke-width="12" stroke-linecap="round" stroke-linejoin="round"/><path d="M-5.0,-40.0 L28.0,-68.0" fill="none" stroke="#06121f" stroke-width="19" stroke-linecap="round" stroke-linejoin="round"/><circle cx="40" cy="-80" r="10" fill="#06121f"/><path d="M26.0,-64.0 L52.0,-42.0 L66.0,-18.0" fill="none" stroke="#06121f" stroke-width="8" stroke-linecap="round" stroke-linejoin="round"/><path d="M20.0,-62.0 L4.0,-44.0 L-22.0,-34.0" fill="none" stroke="#06121f" stroke-width="7" stroke-linecap="round" stroke-linejoin="round"/><path d="M-22.0,-34.0 L-60.0,-8.0" fill="none" stroke="#06121f" stroke-width="3.2" stroke-linecap="round" stroke-linejoin="round"/><g transform="translate(-60.0,-8.0) rotate(55.6)"><rect x="-13.0" y="-3" width="26" height="10" rx="3" fill="#1b1b1b"/></g></g></g><g transform="translate(220,620) scale(1.6,1.6)"><path d="M-5.0,-40.0 L-85.0,-4.0" fill="none" stroke="#06121f" stroke-width="11" stroke-linecap="round" stroke-linejoin="round"/><path d="M-5.0,-40.0 L28.0,-36.0 L22.0,-3.0" fill="none" stroke="#06121f" stroke-width="12" stroke-linecap="round" stroke-linejoin="round"/><path d="M-5.0,-40.0 L28.0,-68.0" fill="none" stroke="#06121f" stroke-width="19" stroke-linecap="round" stroke-linejoin="round"/><circle cx="40" cy="-80" r="10" fill="#06121f"/><path d="M26.0,-64.0 L52.0,-42.0 L66.0,-18.0" fill="none" stroke="#06121f" stroke-width="8" stroke-linecap="round" stroke-linejoin="round"/><path d="M20.0,-62.0 L4.0,-44.0 L-22.0,-34.0" fill="none" stroke="#06121f" stroke-width="7" stroke-linecap="round" stroke-linejoin="round"/><path d="M-22.0,-34.0 L-60.0,-8.0" fill="none" stroke="#06121f" stroke-width="3.2" stroke-linecap="round" stroke-linejoin="round"/><g transform="translate(-60.0,-8.0) rotate(55.6)"><rect x="-13.0" y="-3" width="26" height="10" rx="3" fill="#1b1b1b"/></g><path d="M30,-86 Q40,-98 51,-84 Z" fill="#d7263d"/></g><ellipse cx="344.0" cy="624.0" rx="38.5" ry="4.9" fill="#000" opacity=".35" filter="url(#soft)"/><path d="M313.2,620.5 Q309.0,609.3 314.6,598.7 Q344.0,592.2 373.4,598.7 Q379.0,609.3 374.8,620.5 Q344.0,626.4 313.2,620.5Z" fill="url(#granS)"/><path d="M311.1,609.3 Q344.0,615.2 376.9,609.3" fill="none" stroke="#000" stroke-opacity=".25" stroke-width="0.8"/><ellipse cx="344.0" cy="596.1" rx="14.0" ry="3.1" fill="url(#capR)"/><path d="M337.0,595.2 L338.4,585.8 Q340.5,582.3 351.0,582.8 L367.8,584.0 Q372.0,584.6 370.6,587.5 L369.2,588.7 L349.6,588.1 L348.2,595.2Z" fill="url(#capR)" stroke="#000" stroke-opacity=".3" stroke-width="0.7"/><path d="M321.6,600.5 Q337.0,597.5 331.4,598.1" stroke="#fff" stroke-opacity=".35" stroke-width="1.8" fill="none" stroke-linecap="round"/><path d="M350,640 Q300,660 250,690" stroke="#06121f" stroke-opacity=".15" stroke-width="3" fill="none"/></svg>