<svg xmlns="http://www.w3.org/2000/svg" viewBox="0 0 500 700" width="500" height="700"><defs><radialGradient id="gran" cx="38%" cy="32%" r="75%"><stop offset="0" stop-color="#b9c0c7"/><stop offset=".55" stop-color="#7b838c"/><stop offset="1" stop-color="#4a5058"/></radialGradient><linearGradient id="granS" x1="0" y1="0" x2="0" y2="1"><stop offset="0" stop-color="#b9c0c7"/><stop offset=".45" stop-color="#7b838c"/><stop offset="1" stop-color="#2d3238"/></linearGradient><radialGradient id="capR" cx="40%" cy="35%" r="70%"><stop offset="0" stop-color="#ff5a6b"/><stop offset="1" stop-color="#8e1323"/></radialGradient><radialGradient id="capY" cx="40%" cy="35%" r="70%"><stop offset="0" stop-color="#ffe680"/><stop offset="1" stop-color="#a67f00"/></radialGradient><filter id="soft" x="-30%" y="-30%" width="160%" height="160%"><feGaussianBlur stdDeviation="3"/></filter><filter id="grain"><feTurbulence type="fractalNoise" baseFrequency="1.6" numOctaves="2" seed="4"/><feColorMatrix values="0 0 0 0 0  0 0 0 0 0  0 0 0 0 0  0 0 0 .18 0"/><feComposite in2="SourceGraphic" operator="in"/></filter><linearGradient id="s2" x1="0" y1="0" x2="0" y2="1"><stop offset="0" stop-color="#f2f8fc"/><stop offset="1" stop-color="#bcdcf0"/></linearGradient></defs><rect width="500" height="700" fill="url(#s2)"/><circle cx="250" cy="250" r="190" fill="#1f6fb2" opacity=".12"/><circle cx="250" cy="250" r="120" fill="#c8102e" opacity=".1"/><line x1="60" y1="520" x2="200" y2="520" stroke="#1f6fb2" stroke-opacity=".25" stroke-width="2"/><line x1="72" y1="529" x2="205" y2="529" stroke="#1f6fb2" stroke-opacity=".25" stroke-width="2"/><line x1="84" y1="538" x2="210" y2="538" stroke="#1f6fb2" stroke-opacity=".25" stroke-width="2"/><line x1="96" y1="547" x2="215" y2="547" stroke="#1f6fb2" stroke-opacity=".25" stroke-width="2"/><line x1="108" y1="556" x2="220" y2="556" stroke="#1f6fb2" stroke-opacity=".25" stroke-width="2"/><line x1="120" y1="565" x2="225" y2="565" stroke="#1f6fb2" stroke-opacity=".25" stroke-width="2"/><line x1="132" y1="574" x2="230" y2="574" stroke="#1f6fb2" stroke-opacity=".25" stroke-width="2"/><line x1="144" y1="583" x2="235" y2="583" stroke="#1f6fb2" stroke-opacity=".25" stroke-width="2"/><line x1="156" y1="592" x2="240" y2="592" stroke="#1f6fb2" stroke-opacity=".25" stroke-width="2"/><g transform="translate(80,610) scale(2.0,2.0)"><path d="M0.0,-46.0 L-12.0,-24.0 L-24.0,-2.0" fill="none" stroke="#06121f" stroke-width="11" stroke-linecap="round" stroke-linejoin="round"/><path d="M0.0,-46.0 L14.0,-24.0 L10.0,-2.0" fill="none" stroke="#06121f" stroke-width="11" stroke-linecap="round" stroke-linejoin="round"/><path d="M0.0,-46.0 L26.0,-76.0" fill="none" stroke="#06121f" stroke-width="18" stroke-linecap="round" stroke-linejoin="round"/><circle cx="38" cy="-88" r="9.5" fill="#06121f"/><path d="M24.0,-72.0 L40.0,-54.0 L52.0,-40.0" fill="none" stroke="#06121f" stroke-width="7" stroke-linecap="round" stroke-linejoin="round"/><path d="M22.0,-70.0 L46.0,-62.0 L64.0,-24.0" fill="none" stroke="#06121f" stroke-width="7" stroke-linecap="round" stroke-linejoin="round"/><path d="M44.0,-64.0 L84.0,-4.0" fill="none" stroke="#06121f" stroke-width="3.2" stroke-linecap="round" stroke-linejoin="round"/><g transform="translate(84.0,-4.0) rotate(-33.7)"><rect x="-15.0" y="-3" width="30" height="10" rx="3" fill="#1b1b1b"/></g><path d="M28,-94 Q38,-106 48,-92 Z" fill="#d7263d"/></g><g transform="translate(430,610) scale(-2.0,2.0)"><path d="M0.0,-46.0 L-12.0,-24.0 L-24.0,-2.0" fill="none" stroke="#23466d" stroke-width="11" stroke-linecap="round" stroke-linejoin="round"/><path d="M0.0,-46.0 L14.0,-24.0 L10.0,-2.0" fill="none" stroke="#23466d" stroke-width="11" stroke-linecap="round" stroke-linejoin="round"/><path d="M0.0,-46.0 L26.0,-76.0" fill="none" stroke="#23466d" stroke-width="18" stroke-linecap="round" stroke-linejoin="round"/><circle cx="38" cy="-88" r="9.5" fill="#23466d"/><path d="M24.0,-72.0 L40.0,-54.0 L52.0,-40.0" fill="none" stroke="#23466d" stroke-width="7" stroke-linecap="round" stroke-linejoin="round"/><path d="M22.0,-70.0 L46.0,-62.0 L64.0,-24.0" fill="none" stroke="#23466d" stroke-width="7" stroke-linecap="round" stroke-linejoin="round"/><path d="M44.0,-64.0 L84.0,-4.0" fill="none" stroke="#23466d" stroke-width="3.2" stroke-linecap="round" stroke-linejoin="round"/><g transform="translate(84.0,-4.0) rotate(-33.7)"><rect x="-15.0" y="-3" width="30" height="10" rx="3" fill="#1b1b1b"/></g><path d="M28,-94 Q38,-106 48,-92 Z" fill="#d7263d"/></g><ellipse cx="255.0" cy="616.0" rx="47.3" ry="6.0" fill="#000" opacity=".35" filter="url(#soft)"/><path d="M217.2,611.7 Q212.0,597.9 218.9,584.9 Q255.0,577.0 291.1,584.9 Q298.0,597.9 292.8,611.7 Q255.0,618.9 217.2,611.7Z" fill="url(#granS)"/><path d="M214.6,597.9 Q255.0,605.2 295.4,597.9" fill="none" stroke="#000" stroke-opacity=".25" stroke-width="1.0"/><ellipse cx="255.0" cy="581.7" rx="17.2" ry="3.9" fill="url(#capR)"/><path d="M246.4,580.6 L248.1,569.0 Q250.7,564.7 263.6,565.4 L284.2,566.9 Q289.4,567.6 287.7,571.2 L286.0,572.7 L261.9,571.9 L260.2,580.6Z" fill="url(#capR)" stroke="#000" stroke-opacity=".3" stroke-width="0.9"/><path d="M227.5,587.1 Q246.4,583.5 239.5,584.2" stroke="#fff" stroke-opacity=".35" stroke-width="2.1" fill="none" stroke-linecap="round"/><circle cx="317" cy="609" r="1.8" fill="#fff"/><circle cx="189" cy="611" r="2.5" fill="#fff"/><circle cx="337" cy="613" r="1.1" fill="#fff"/><circle cx="208" cy="604" r="1.7" fill="#fff"/><circle cx="207" cy="594" r="1.8" fill="#fff"/><circle cx="277" cy="608" r="2.6" fill="#fff"/><circle cx="308" cy="610" r="2.0" fill="#fff"/><circle cx="223" cy="595" r="2.3" fill="#fff"/><circle cx="206" cy="613" r="1.3" fill="#fff"/><circle cx="248" cy="600" r="1.3" fill="#fff"/><circle cx="268" cy="601" r="2.2" fill="#fff"/><circle cx="246" cy="604" r="2.8" fill="#fff"/><circle cx="250" cy="606" r="2.3" fill="#fff"/><circle cx="212" cy="607" r="2.4" fill="#fff"/></svg>