<svg xmlns="http://www.w3.org/2000/svg" viewBox="0 0 700 500" width="700" height="500"><defs><radialGradient id="gran" cx="38%" cy="32%" r="75%"><stop offset="0" stop-color="#b9c0c7"/><stop offset=".55" stop-color="#7b838c"/><stop offset="1" stop-color="#4a5058"/></radialGradient><linearGradient id="granS" x1="0" y1="0" x2="0" y2="1"><stop offset="0" stop-color="#b9c0c7"/><stop offset=".45" stop-color="#7b838c"/><stop offset="1" stop-color="#2d3238"/></linearGradient><radialGradient id="capR" cx="40%" cy="35%" r="70%"><stop offset="0" stop-color="#ff5a6b"/><stop offset="1" stop-color="#8e1323"/></radialGradient><radialGradient id="capY" cx="40%" cy="35%" r="70%"><stop offset="0" stop-color="#ffe680"/><stop offset="1" stop-color="#a67f00"/></radialGradient><filter id="soft" x="-30%" y="-30%" width="160%" height="160%"><feGaussianBlur stdDeviation="3"/></filter><filter id="grain"><feTurbulence type="fractalNoise" baseFrequency="1.6" numOctaves="2" seed="4"/><feColorMatrix values="0 0 0 0 0  0 0 0 0 0  0 0 0 0 0  0 0 0 .18 0"/><feComposite in2="SourceGraphic" operator="in"/></filter><linearGradient id="s7" x1="0" y1="0" x2="0" y2="1"><stop offset="0" stop-color="#050d1a"/><stop offset="1" stop-color="#16385c"/></linearGradient><linearGradient id="i7" x1="0" y1="0" x2="0" y2="1"><stop offset="0" stop-color="#a9d0ea"/><stop offset="1" stop-color="#f4fbff"/></linearGradient></defs><rect width="700" height="500" fill="url(#s7)"/><rect x="30" y="30" width="40" height="8" fill="#fff"/><path d="M42,38 L58,38 L120.0,238 L-20.0,238Z" fill="#fff" opacity="0.08" filter="url(#soft)"/><rect x="130" y="30" width="40" height="8" fill="#fff"/><path d="M142,38 L158,38 L220.0,238 L80.0,238Z" fill="#fff" opacity="0.08" filter="url(#soft)"/><rect x="230" y="30" width="40" height="8" fill="#fff"/><path d="M242,38 L258,38 L320.0,238 L180.0,238Z" fill="#fff" opacity="0.08" filter="url(#soft)"/><rect x="330" y="30" width="40" height="8" fill="#fff"/><path d="M342,38 L358,38 L420.0,238 L280.0,238Z" fill="#fff" opacity="0.08" filter="url(#soft)"/><rect x="430" y="30" width="40" height="8" fill="#fff"/><path d="M442,38 L458,38 L520.0,238 L380.0,238Z" fill="#fff" opacity="0.08" filter="url(#soft)"/><rect x="530" y="30" width="40" height="8" fill="#fff"/><path d="M542,38 L558,38 L620.0,238 L480.0,238Z" fill="#fff" opacity="0.08" filter="url(#soft)"/><rect x="630" y="30" width="40" height="8" fill="#fff"/><path d="M642,38 L658,38 L720.0,238 L580.0,238Z" fill="#fff" opacity="0.08" filter="url(#soft)"/><rect x="0" y="120" width="700" height="60" fill="#0e2742"/><circle cx="227" cy="134" r="2.4" fill="#d7263d" opacity=".6"/><circle cx="51" cy="153" r="2.4" fill="#ffffff" opacity=".6"/><circle cx="408" cy="171" r="2.4" fill="#f5c518" opacity=".6"/><circle cx="26" cy="148" r="2.4" fill="#d7263d" opacity=".6"/><circle cx="168" cy="154" r="2.4" fill="#d7263d" opacity=".6"/><circle cx="579" cy="132" r="2.4" fill="#f5c518" opacity=".6"/><circle cx="441" cy="155" r="2.4" fill="#d7263d" opacity=".6"/><circle cx="404" cy="146" r="2.4" fill="#f5c518" opacity=".6"/><circle cx="33" cy="169" r="2.4" fill="#ffffff" opacity=".6"/><circle cx="293" cy="153" r="2.4" fill="#ffffff" opacity=".6"/><circle cx="392" cy="160" r="2.4" fill="#d7263d" opacity=".6"/><circle cx="407" cy="158" r="2.4" fill="#ffffff" opacity=".6"/><circle cx="68" cy="162" r="2.4" fill="#d7263d" opacity=".6"/><circle cx="433" cy="151" r="2.4" fill="#8fc7ee" opacity=".6"/><circle cx="544" cy="149" r="2.4" fill="#8fc7ee" opacity=".6"/><circle cx="253" cy="138" r="2.4" fill="#f5c518" opacity=".6"/><circle cx="489" cy="138" r="2.4" fill="#ffffff" opacity=".6"/><circle cx="368" cy="170" r="2.4" fill="#8fc7ee" opacity=".6"/><circle cx="202" cy="175" r="2.4" fill="#d7263d" opacity=".6"/><circle cx="358" cy="134" r="2.4" fill="#ffffff" opacity=".6"/><circle cx="106" cy="150" r="2.4" fill="#d7263d" opacity=".6"/><circle cx="673" cy="130" r="2.4" fill="#ffffff" opacity=".6"/><circle cx="238" cy="144" r="2.4" fill="#8fc7ee" opacity=".6"/><circle cx="406" cy="149" r="2.4" fill="#d7263d" opacity=".6"/><circle cx="661" cy="150" r="2.4" fill="#d7263d" opacity=".6"/><circle cx="42" cy="161" r="2.4" fill="#8fc7ee" opacity=".6"/><circle cx="199" cy="145" r="2.4" fill="#ffffff" opacity=".6"/><circle cx="16" cy="149" r="2.4" fill="#f5c518" opacity=".6"/><circle cx="428" cy="151" r="2.4" fill="#f5c518" opacity=".6"/><circle cx="538" cy="132" r="2.4" fill="#f5c518" opacity=".6"/><circle cx="279" cy="172" r="2.4" fill="#8fc7ee" opacity=".6"/><circle cx="56" cy="148" r="2.4" fill="#ffffff" opacity=".6"/><circle cx="618" cy="167" r="2.4" fill="#ffffff" opacity=".6"/><circle cx="494" cy="175" r="2.4" fill="#8fc7ee" opacity=".6"/><circle cx="670" cy="134" r="2.4" fill="#f5c518" opacity=".6"/><circle cx="106" cy="159" r="2.4" fill="#d7263d" opacity=".6"/><circle cx="339" cy="155" r="2.4" fill="#ffffff" opacity=".6"/><circle cx="197" cy="133" r="2.4" fill="#ffffff" opacity=".6"/><circle cx="427" cy="142" r="2.4" fill="#f5c518" opacity=".6"/><circle cx="483" cy="152" r="2.4" fill="#d7263d" opacity=".6"/><circle cx="320" cy="170" r="2.4" fill="#8fc7ee" opacity=".6"/><circle cx="279" cy="146" r="2.4" fill="#8fc7ee" opacity=".6"/><circle cx="444" cy="129" r="2.4" fill="#d7263d" opacity=".6"/><circle cx="689" cy="148" r="2.4" fill="#d7263d" opacity=".6"/><circle cx="238" cy="129" r="2.4" fill="#d7263d" opacity=".6"/><circle cx="397" cy="153" r="2.4" fill="#ffffff" opacity=".6"/><circle cx="430" cy="130" r="2.4" fill="#f5c518" opacity=".6"/><circle cx="430" cy="133" r="2.4" fill="#ffffff" opacity=".6"/><circle cx="669" cy="156" r="2.4" fill="#8fc7ee" opacity=".6"/><circle cx="86" cy="168" r="2.4" fill="#8fc7ee" opacity=".6"/><circle cx="336" cy="142" r="2.4" fill="#f5c518" opacity=".6"/><circle cx="72" cy="143" r="2.4" fill="#ffffff" opacity=".6"/><circle cx="335" cy="161" r="2.4" fill="#d7263d" opacity=".6"/><circle cx="144" cy="174" r="2.4" fill="#ffffff" opacity=".6"/><circle cx="103" cy="153" r="2.4" fill="#d7263d" opacity=".6"/><circle cx="531" cy="141" r="2.4" fill="#d7263d" opacity=".6"/><circle cx="487" cy="139" r="2.4" fill="#ffffff" opacity=".6"/><circle cx="636" cy="144" r="2.4" fill="#f5c518" opacity=".6"/><circle cx="373" cy="165" r="2.4" fill="#ffffff" opacity=".6"/><circle cx="446" cy="157" r="2.4" fill="#f5c518" opacity=".6"/><circle cx="564" cy="167" r="2.4" fill="#f5c518" opacity=".6"/><circle cx="140" cy="151" r="2.4" fill="#d7263d" opacity=".6"/><circle cx="693" cy="166" r="2.4" fill="#8fc7ee" opacity=".6"/><circle cx="181" cy="161" r="2.4" fill="#ffffff" opacity=".6"/><circle cx="313" cy="173" r="2.4" fill="#ffffff" opacity=".6"/><circle cx="669" cy="144" r="2.4" fill="#f5c518" opacity=".6"/><circle cx="72" cy="150" r="2.4" fill="#ffffff" opacity=".6"/><circle cx="143" cy="157" r="2.4" fill="#d7263d" opacity=".6"/><circle cx="336" cy="159" r="2.4" fill="#d7263d" opacity=".6"/><circle cx="584" cy="132" r="2.4" fill="#8fc7ee" opacity=".6"/><circle cx="548" cy="164" r="2.4" fill="#8fc7ee" opacity=".6"/><circle cx="622" cy="148" r="2.4" fill="#ffffff" opacity=".6"/><circle cx="61" cy="173" r="2.4" fill="#8fc7ee" opacity=".6"/><circle cx="324" cy="163" r="2.4" fill="#d7263d" opacity=".6"/><circle cx="507" cy="135" r="2.4" fill="#f5c518" opacity=".6"/><circle cx="19" cy="156" r="2.4" fill="#8fc7ee" opacity=".6"/><circle cx="565" cy="133" r="2.4" fill="#8fc7ee" opacity=".6"/><circle cx="460" cy="144" r="2.4" fill="#f5c518" opacity=".6"/><circle cx="15" cy="166" r="2.4" fill="#d7263d" opacity=".6"/><circle cx="369" cy="173" r="2.4" fill="#8fc7ee" opacity=".6"/><circle cx="691" cy="136" r="2.4" fill="#f5c518" opacity=".6"/><circle cx="20" cy="137" r="2.4" fill="#f5c518" opacity=".6"/><circle cx="535" cy="142" r="2.4" fill="#8fc7ee" opacity=".6"/><circle cx="584" cy="129" r="2.4" fill="#ffffff" opacity=".6"/><circle cx="628" cy="159" r="2.4" fill="#8fc7ee" opacity=".6"/><circle cx="579" cy="170" r="2.4" fill="#f5c518" opacity=".6"/><circle cx="372" cy="152" r="2.4" fill="#d7263d" opacity=".6"/><circle cx="611" cy="165" r="2.4" fill="#d7263d" opacity=".6"/><circle cx="543" cy="133" r="2.4" fill="#f5c518" opacity=".6"/><circle cx="331" cy="162" r="2.4" fill="#d7263d" opacity=".6"/><circle cx="228" cy="152" r="2.4" fill="#8fc7ee" opacity=".6"/><circle cx="549" cy="131" r="2.4" fill="#d7263d" opacity=".6"/><circle cx="174" cy="140" r="2.4" fill="#d7263d" opacity=".6"/><circle cx="355" cy="154" r="2.4" fill="#d7263d" opacity=".6"/><circle cx="310" cy="157" r="2.4" fill="#f5c518" opacity=".6"/><circle cx="485" cy="149" r="2.4" fill="#8fc7ee" opacity=".6"/><circle cx="355" cy="138" r="2.4" fill="#ffffff" opacity=".6"/><circle cx="646" cy="171" r="2.4" fill="#f5c518" opacity=".6"/><circle cx="588" cy="133" r="2.4" fill="#d7263d" opacity=".6"/><circle cx="275" cy="142" r="2.4" fill="#f5c518" opacity=".6"/><circle cx="300" cy="137" r="2.4" fill="#ffffff" opacity=".6"/><circle cx="549" cy="171" r="2.4" fill="#f5c518" opacity=".6"/><circle cx="658" cy="158" r="2.4" fill="#ffffff" opacity=".6"/><circle cx="100" cy="170" r="2.4" fill="#8fc7ee" opacity=".6"/><circle cx="154" cy="174" r="2.4" fill="#8fc7ee" opacity=".6"/><circle cx="619" cy="134" r="2.4" fill="#f5c518" opacity=".6"/><circle cx="113" cy="148" r="2.4" fill="#8fc7ee" opacity=".6"/><circle cx="237" cy="136" r="2.4" fill="#ffffff" opacity=".6"/><circle cx="65" cy="144" r="2.4" fill="#ffffff" opacity=".6"/><circle cx="388" cy="148" r="2.4" fill="#d7263d" opacity=".6"/><circle cx="269" cy="152" r="2.4" fill="#ffffff" opacity=".6"/><circle cx="359" cy="129" r="2.4" fill="#f5c518" opacity=".6"/><circle cx="680" cy="131" r="2.4" fill="#ffffff" opacity=".6"/><circle cx="190" cy="171" r="2.4" fill="#f5c518" opacity=".6"/><circle cx="189" cy="132" r="2.4" fill="#8fc7ee" opacity=".6"/><circle cx="595" cy="160" r="2.4" fill="#ffffff" opacity=".6"/><circle cx="284" cy="153" r="2.4" fill="#8fc7ee" opacity=".6"/><circle cx="490" cy="130" r="2.4" fill="#d7263d" opacity=".6"/><circle cx="560" cy="135" r="2.4" fill="#d7263d" opacity=".6"/><circle cx="188" cy="127" r="2.4" fill="#d7263d" opacity=".6"/><circle cx="561" cy="130" r="2.4" fill="#f5c518" opacity=".6"/><circle cx="47" cy="169" r="2.4" fill="#8fc7ee" opacity=".6"/><circle cx="8" cy="176" r="2.4" fill="#8fc7ee" opacity=".6"/><circle cx="649" cy="139" r="2.4" fill="#f5c518" opacity=".6"/><circle cx="30" cy="161" r="2.4" fill="#d7263d" opacity=".6"/><circle cx="678" cy="139" r="2.4" fill="#f5c518" opacity=".6"/><circle cx="141" cy="142" r="2.4" fill="#ffffff" opacity=".6"/><circle cx="372" cy="136" r="2.4" fill="#8fc7ee" opacity=".6"/><circle cx="350" cy="135" r="2.4" fill="#ffffff" opacity=".6"/><circle cx="563" cy="176" r="2.4" fill="#d7263d" opacity=".6"/><circle cx="11" cy="163" r="2.4" fill="#f5c518" opacity=".6"/><circle cx="360" cy="138" r="2.4" fill="#8fc7ee" opacity=".6"/><circle cx="74" cy="167" r="2.4" fill="#8fc7ee" opacity=".6"/><circle cx="460" cy="153" r="2.4" fill="#8fc7ee" opacity=".6"/><circle cx="679" cy="141" r="2.4" fill="#f5c518" opacity=".6"/><circle cx="688" cy="143" r="2.4" fill="#f5c518" opacity=".6"/><circle cx="283" cy="143" r="2.4" fill="#d7263d" opacity=".6"/><circle cx="586" cy="127" r="2.4" fill="#ffffff" opacity=".6"/><circle cx="302" cy="129" r="2.4" fill="#8fc7ee" opacity=".6"/><circle cx="609" cy="160" r="2.4" fill="#ffffff" opacity=".6"/><circle cx="419" cy="161" r="2.4" fill="#d7263d" opacity=".6"/><circle cx="322" cy="134" r="2.4" fill="#8fc7ee" opacity=".6"/><circle cx="3" cy="144" r="2.4" fill="#ffffff" opacity=".6"/><circle cx="681" cy="153" r="2.4" fill="#f5c518" opacity=".6"/><circle cx="24" cy="170" r="2.4" fill="#f5c518" opacity=".6"/><circle cx="250" cy="126" r="2.4" fill="#8fc7ee" opacity=".6"/><circle cx="59" cy="140" r="2.4" fill="#f5c518" opacity=".6"/><circle cx="174" cy="165" r="2.4" fill="#d7263d" opacity=".6"/><circle cx="185" cy="130" r="2.4" fill="#8fc7ee" opacity=".6"/><circle cx="411" cy="146" r="2.4" fill="#ffffff" opacity=".6"/><circle cx="213" cy="138" r="2.4" fill="#f5c518" opacity=".6"/><circle cx="460" cy="162" r="2.4" fill="#8fc7ee" opacity=".6"/><circle cx="535" cy="162" r="2.4" fill="#8fc7ee" opacity=".6"/><circle cx="105" cy="162" r="2.4" fill="#f5c518" opacity=".6"/><circle cx="31" cy="168" r="2.4" fill="#8fc7ee" opacity=".6"/><circle cx="514" cy="167" r="2.4" fill="#f5c518" opacity=".6"/><circle cx="637" cy="164" r="2.4" fill="#d7263d" opacity=".6"/><circle cx="578" cy="155" r="2.4" fill="#f5c518" opacity=".6"/><circle cx="60" cy="128" r="2.4" fill="#ffffff" opacity=".6"/><circle cx="672" cy="145" r="2.4" fill="#8fc7ee" opacity=".6"/><path d="M0,180 L700,180 L700,500 L0,500Z" fill="url(#i7)"/><path d="M50,180 L170,180 L130.0,500 L-30.0,500Z" fill="#fff" opacity=".35"/><g opacity="1.0"><ellipse cx="110" cy="220" rx="55" ry="16.5" fill="#1f6fb2"/><ellipse cx="110" cy="220" rx="36.7" ry="11.0" fill="#eaf5fc"/><ellipse cx="110" cy="220" rx="18.3" ry="5.5" fill="#c8102e"/><ellipse cx="110" cy="220" rx="6.9" ry="2.1" fill="#eaf5fc"/></g><line x1="101.0" y1="180" x2="50.0" y2="500" stroke="#06121f" stroke-opacity=".2"/><path d="M210,180 L330,180 L330.0,500 L170.0,500Z" fill="#fff" opacity=".35"/><g opacity="1.0"><ellipse cx="270" cy="220" rx="55" ry="16.5" fill="#1f6fb2"/><ellipse cx="270" cy="220" rx="36.7" ry="11.0" fill="#eaf5fc"/><ellipse cx="270" cy="220" rx="18.3" ry="5.5" fill="#c8102e"/><ellipse cx="270" cy="220" rx="6.9" ry="2.1" fill="#eaf5fc"/></g><line x1="267.0" y1="180" x2="250.0" y2="500" stroke="#06121f" stroke-opacity=".2"/><path d="M370,180 L490,180 L530.0,500 L370.0,500Z" fill="#fff" opacity=".35"/><g opacity="1.0"><ellipse cx="430" cy="220" rx="55" ry="16.5" fill="#1f6fb2"/><ellipse cx="430" cy="220" rx="36.7" ry="11.0" fill="#eaf5fc"/><ellipse cx="430" cy="220" rx="18.3" ry="5.5" fill="#c8102e"/><ellipse cx="430" cy="220" rx="6.9" ry="2.1" fill="#eaf5fc"/></g><line x1="433.0" y1="180" x2="450.0" y2="500" stroke="#06121f" stroke-opacity=".2"/><path d="M530,180 L650,180 L730.0,500 L570.0,500Z" fill="#fff" opacity=".35"/><g opacity="1.0"><ellipse cx="590" cy="220" rx="55" ry="16.5" fill="#1f6fb2"/><ellipse cx="590" cy="220" rx="36.7" ry="11.0" fill="#eaf5fc"/><ellipse cx="590" cy="220" rx="18.3" ry="5.5" fill="#c8102e"/><ellipse cx="590" cy="220" rx="6.9" ry="2.1" fill="#eaf5fc"/></g><line x1="599.0" y1="180" x2="650.0" y2="500" stroke="#06121f" stroke-opacity=".2"/><g transform="translate(215,400) scale(0.8,0.8)"><path d="M0.0,-46.0 L-12.0,-24.0 L-24.0,-2.0" fill="none" stroke="#06121f" stroke-width="11" stroke-linecap="round" stroke-linejoin="round"/><path d="M0.0,-46.0 L14.0,-24.0 L10.0,-2.0" fill="none" stroke="#06121f" stroke-width="11" stroke-linecap="round" stroke-linejoin="round"/><path d="M0.0,-46.0 L26.0,-76.0" fill="none" stroke="#06121f" stroke-width="18" stroke-linecap="round" stroke-linejoin="round"/><circle cx="38" cy="-88" r="9.5" fill="#06121f"/><path d="M24.0,-72.0 L40.0,-54.0 L52.0,-40.0" fill="none" stroke="#06121f" stroke-width="7" stroke-linecap="round" stroke-linejoin="round"/><path d="M22.0,-70.0 L46.0,-62.0 L64.0,-24.0" fill="none" stroke="#06121f" stroke-width="7" stroke-linecap="round" stroke-linejoin="round"/><path d="M44.0,-64.0 L84.0,-4.0" fill="none" stroke="#06121f" stroke-width="3.2" stroke-linecap="round" stroke-linejoin="round"/><g transform="translate(84.0,-4.0) rotate(-33.7)"><rect x="-15.0" y="-3" width="30" height="10" rx="3" fill="#1b1b1b"/></g><path d="M28,-94 Q38,-106 48,-92 Z" fill="#d7263d"/></g><g transform="translate(370,402) scale(-0.8,0.8)"><path d="M0.0,-46.0 L-12.0,-24.0 L-24.0,-2.0" fill="none" stroke="#06121f" stroke-width="11" stroke-linecap="round" stroke-linejoin="round"/><path d="M0.0,-46.0 L14.0,-24.0 L10.0,-2.0" fill="none" stroke="#06121f" stroke-width="11" stroke-linecap="round" stroke-linejoin="round"/><path d="M0.0,-46.0 L26.0,-76.0" fill="none" stroke="#06121f" stroke-width="18" stroke-linecap="round" stroke-linejoin="round"/><circle cx="38" cy="-88" r="9.5" fill="#06121f"/><path d="M24.0,-72.0 L40.0,-54.0 L52.0,-40.0" fill="none" stroke="#06121f" stroke-width="7" stroke-linecap="round" stroke-linejoin="round"/><path d="M22.0,-70.0 L46.0,-62.0 L64.0,-24.0" fill="none" stroke="#06121f" stroke-width="7" stroke-linecap="round" stroke-linejoin="round"/><path d="M44.0,-64.0 L84.0,-4.0" fill="none" stroke="#06121f" stroke-width="3.2" stroke-linecap="round" stroke-linejoin="round"/><g transform="translate(84.0,-4.0) rotate(-33.7)"><rect x="-15.0" y="-3" width="30" height="10" rx="3" fill="#1b1b1b"/></g><path d="M28,-94 Q38,-106 48,-92 Z" fill="#d7263d"/></g><ellipse cx="292.0" cy="404.0" rx="15.4" ry="2.0" fill="#000" opacity=".35" filter="url(#soft)"/><path d="M279.7,402.6 Q278.0,398.1 280.2,393.9 Q292.0,391.3 303.8,393.9 Q306.0,398.1 304.3,402.6 Q292.0,404.9 279.7,402.6Z" fill="url(#granS)"/><path d="M278.8,398.1 Q292.0,400.5 305.2,398.1" fill="none" stroke="#000" stroke-opacity=".25" stroke-width="0.3"/><ellipse cx="292.0" cy="392.8" rx="5.6" ry="1.3" fill="url(#capR)"/><path d="M289.2,392.5 L289.8,388.7 Q290.6,387.3 294.8,387.5 L301.5,388.0 Q303.2,388.2 302.6,389.4 L302.1,389.9 L294.2,389.7 L293.7,392.5Z" fill="url(#capR)" stroke="#000" stroke-opacity=".3" stroke-width="0.3"/><path d="M283.0,394.6 Q289.2,393.4 287.0,393.7" stroke="#fff" stroke-opacity=".35" stroke-width="0.7" fill="none" stroke-linecap="round"/><g transform="translate(520,470) scale(0.9,0.9)"><path d="M-5.0,-40.0 L-85.0,-4.0" fill="none" stroke="#23466d" stroke-width="11" stroke-linecap="round" stroke-linejoin="round"/><path d="M-5.0,-40.0 L28.0,-36.0 L22.0,-3.0" fill="none" stroke="#23466d" stroke-width="12" stroke-linecap="round" stroke-linejoin="round"/><path d="M-5.0,-40.0 L28.0,-68.0" fill="none" stroke="#23466d" stroke-width="19" stroke-linecap="round" stroke-linejoin="round"/><circle cx="40" cy="-80" r="10" fill="#23466d"/><path d="M26.0,-64.0 L52.0,-42.0 L66.0,-18.0" fill="none" stroke="#23466d" stroke-width="8" stroke-linecap="round" stroke-linejoin="round"/><path d="M20.0,-62.0 L4.0,-44.0 L-22.0,-34.0" fill="none" stroke="#23466d" stroke-width="7" stroke-linecap="round" stroke-linejoin="round"/><path d="M-22.0,-34.0 L-60.0,-8.0" fill="none" stroke="#23466d" stroke-width="3.2" stroke-linecap="round" stroke-linejoin="round"/><g transform="translate(-60.0,-8.0) rotate(55.6)"><rect x="-13.0" y="-3" width="26" height="10" rx="3" fill="#1b1b1b"/></g><path d="M30,-86 Q40,-98 51,-84 Z" fill="#f5c518"/></g><ellipse cx="582.0" cy="472.0" rx="20.9" ry="2.7" fill="#000" opacity=".35" filter="url(#soft)"/><path d="M565.3,470.1 Q563.0,464.0 566.0,458.3 Q582.0,454.8 598.0,458.3 Q601.0,464.0 598.7,470.1 Q582.0,473.3 565.3,470.1Z" fill="url(#granS)"/><path d="M564.1,464.0 Q582.0,467.2 599.9,464.0" fill="none" stroke="#000" stroke-opacity=".25" stroke-width="0.5"/><ellipse cx="582.0" cy="456.8" rx="7.6" ry="1.7" fill="url(#capY)"/><path d="M578.2,456.4 L579.0,451.3 Q580.1,449.3 585.8,449.7 L594.9,450.3 Q597.2,450.6 596.4,452.2 L595.7,452.8 L585.0,452.5 L584.3,456.4Z" fill="url(#capY)" stroke="#000" stroke-opacity=".3" stroke-width="0.4"/><path d="M569.8,459.2 Q578.2,457.6 575.2,458.0" stroke="#fff" stroke-opacity=".35" stroke-width="1.0" fill="none" stroke-linecap="round"/><g transform="translate(130,250) scale(0.55,0.55)"><path d="M0.0,-48.0 L-8.0,-24.0 L-10.0,-2.0" fill="none" stroke="#06121f" stroke-width="11" stroke-linecap="round" stroke-linejoin="round"/><path d="M0.0,-48.0 L10.0,-25.0 L12.0,-2.0" fill="none" stroke="#06121f" stroke-width="11" stroke-linecap="round" stroke-linejoin="round"/><path d="M0.0,-48.0 L2.0,-86.0" fill="none" stroke="#06121f" stroke-width="18" stroke-linecap="round" stroke-linejoin="round"/><circle cx="3" cy="-100" r="10" fill="#06121f"/><path d="M0.0,-82.0 L-16.0,-62.0 L-6.0,-48.0" fill="none" stroke="#06121f" stroke-width="7" stroke-linecap="round" stroke-linejoin="round"/><path d="M4.0,-82.0 L22.0,-66.0 L28.0,-48.0" fill="none" stroke="#06121f" stroke-width="7" stroke-linecap="round" stroke-linejoin="round"/><path d="M34.0,-104.0 L30.0,-6.0" fill="none" stroke="#06121f" stroke-width="3.2" stroke-linecap="round" stroke-linejoin="round"/><g transform="translate(30.0,-6.0) rotate(2.3)"><rect x="-12.0" y="-3" width="24" height="10" rx="3" fill="#1b1b1b"/></g></g></svg>